<svg width="619" height="619" viewBox="0 0 619 619" fill="none" xmlns="http://www.w3.org/2000/svg">
<path fill-rule="evenodd" clip-rule="evenodd" d="M330.436 248.895C332.627 249.174 334.155 251.345 333.849 253.743L333.053 259.987L336.028 260.366L336.272 260.399C346.547 261.853 353.681 272.093 352.24 283.397L352.068 284.754L352.032 285.021C350.477 296.187 341.071 304.172 330.841 303.012L330.597 302.984L327.622 302.604L327.553 303.147C326.483 311.542 319.4 317.556 311.733 316.579L287.688 313.515L302.701 301.826L299.217 297.297L308.096 290.385C314.242 285.6 315.762 277.222 311.492 271.671L310.042 269.786C305.772 264.236 297.328 263.615 291.182 268.4L282.303 275.312L278.437 270.288L265.173 280.614L269.641 245.56C269.947 243.162 271.97 241.444 274.161 241.723L330.436 248.895ZM328.764 293.647L331.739 294.026C337.626 294.776 343.065 290.158 343.887 283.712L344.06 282.355C344.881 275.908 340.774 270.074 334.887 269.324L331.912 268.945L328.764 293.647Z" fill="#A9A9A9" fill-opacity="0.24"/>
<path d="M295.049 273.426C298.121 271.034 302.343 271.344 304.479 274.119L305.928 276.004C308.063 278.779 307.303 282.968 304.23 285.361L295.351 292.273L286.169 280.338L295.049 273.426Z" fill="#A9A9A9" fill-opacity="0.24"/>
<path d="M254.241 355.99V344.354H258.764C261.648 344.354 263.222 345.339 263.222 347.518C263.222 348.928 262.353 349.829 260.813 349.977C262.697 350.124 263.713 351.173 263.713 352.779C263.713 354.943 262.14 355.99 259.321 355.99H254.241ZM256.732 349.174H258.698C259.928 349.174 260.714 348.698 260.714 347.781C260.714 346.814 259.96 346.388 258.698 346.388H256.732V349.174ZM256.732 353.958H259.207C260.403 353.958 261.206 353.484 261.206 352.484C261.206 351.501 260.403 350.976 259.207 350.976H256.732V353.958ZM267.583 356.188C265.747 356.188 264.501 355.302 264.501 353.794C264.501 352.254 265.468 351.468 267.386 351.075L270.221 350.518C270.221 349.37 269.697 348.797 268.73 348.797C267.796 348.797 267.288 349.239 267.124 350.059L264.649 349.943C264.977 348.009 266.435 347.01 268.73 347.01C271.352 347.01 272.679 348.288 272.679 350.68V353.68C272.679 354.171 272.843 354.302 273.171 354.302H273.417V355.99C273.269 356.04 272.876 356.089 272.548 356.089C271.631 356.089 270.827 355.762 270.614 354.648C270.172 355.582 269.09 356.188 267.583 356.188ZM268.173 354.5C269.402 354.5 270.221 353.746 270.221 352.484V352.057L268.222 352.484C267.419 352.648 267.025 352.991 267.025 353.565C267.025 354.155 267.419 354.5 268.173 354.5ZM274.195 355.99V347.206H276.523L276.588 348.961C276.932 347.732 277.604 347.206 278.669 347.206H279.472V349.239H278.669C277.293 349.239 276.654 349.746 276.654 351.057V355.99H274.195ZM280.181 355.99V347.206H282.508L282.574 348.961C282.918 347.732 283.59 347.206 284.655 347.206H285.458V349.239H284.655C283.278 349.239 282.639 349.746 282.639 351.057V355.99H280.181ZM288.677 356.188C286.841 356.188 285.595 355.302 285.595 353.794C285.595 352.254 286.562 351.468 288.48 351.075L291.315 350.518C291.315 349.37 290.791 348.797 289.824 348.797C288.89 348.797 288.382 349.239 288.218 350.059L285.743 349.943C286.071 348.009 287.529 347.01 289.824 347.01C292.446 347.01 293.773 348.288 293.773 350.68V353.68C293.773 354.171 293.937 354.302 294.265 354.302H294.511V355.99C294.363 356.04 293.97 356.089 293.642 356.089C292.725 356.089 291.921 355.762 291.708 354.648C291.266 355.582 290.184 356.188 288.677 356.188ZM289.266 354.5C290.496 354.5 291.315 353.746 291.315 352.484V352.057L289.316 352.484C288.513 352.648 288.119 352.991 288.119 353.565C288.119 354.155 288.513 354.5 289.266 354.5ZM295.289 355.99V347.206H297.502L297.551 348.633C297.993 347.6 298.878 347.01 299.944 347.01C301.206 347.01 302.074 347.699 302.451 348.797C302.861 347.633 303.762 347.01 304.926 347.01C306.729 347.01 307.876 348.173 307.876 350.336V355.99H305.418V351.026C305.418 349.649 305.008 348.961 304.09 348.961C303.189 348.961 302.681 349.73 302.681 351.057V355.99H300.468V351.057C300.468 349.697 300.108 348.961 299.157 348.961C298.256 348.961 297.748 349.73 297.748 351.057V355.99H295.289ZM313.275 356.188C310.587 356.188 308.85 354.369 308.85 351.599C308.85 348.83 310.587 347.01 313.259 347.01C315.864 347.01 317.569 348.813 317.569 351.763V352.255H311.39C311.456 353.648 312.193 354.32 313.324 354.32C314.144 354.32 314.734 353.975 314.963 353.253L317.438 353.401C316.962 355.155 315.389 356.188 313.275 356.188ZM311.39 350.747H315.045C314.979 349.469 314.275 348.83 313.259 348.83C312.226 348.83 311.521 349.534 311.39 350.747ZM318.576 355.99V347.206H320.788L320.838 348.666C321.313 347.469 322.28 347.01 323.443 347.01C325.328 347.01 326.426 348.304 326.426 350.336V355.99H323.968V351.156C323.968 349.746 323.656 348.961 322.624 348.961C321.608 348.961 321.034 349.746 321.034 351.156V355.99H318.576ZM331.145 355.99C329.326 355.99 328.506 355.187 328.506 353.352V349.042H327.097V347.206H328.506V345.141H330.964V347.206H333.275V349.042H330.964V353.057C330.964 353.909 331.325 354.156 332.046 354.156H333.275V355.99H331.145ZM338.051 356.188C335.363 356.188 333.593 354.385 333.593 351.599C333.593 348.83 335.363 347.01 338.051 347.01C340.739 347.01 342.508 348.83 342.508 351.599C342.508 354.385 340.739 356.188 338.051 356.188ZM338.051 354.302C339.28 354.302 339.985 353.304 339.985 351.599C339.985 349.895 339.28 348.895 338.051 348.895C336.822 348.895 336.117 349.895 336.117 351.599C336.117 353.304 336.822 354.302 338.051 354.302ZM350.034 356.188C347.805 356.188 346.429 354.418 346.429 351.599C346.429 348.797 347.838 347.01 350.034 347.01C351.28 347.01 352.214 347.551 352.673 348.453V344.354H355.131V355.99H352.788L352.738 354.697C352.247 355.647 351.247 356.188 350.034 356.188ZM350.837 354.302C352.017 354.302 352.673 353.369 352.673 351.599C352.673 349.813 352.017 348.895 350.837 348.895C349.69 348.895 348.953 349.928 348.953 351.599C348.953 353.238 349.706 354.302 350.837 354.302ZM360.568 356.188C357.881 356.188 356.143 354.369 356.143 351.599C356.143 348.83 357.881 347.01 360.552 347.01C363.158 347.01 364.862 348.813 364.862 351.763V352.255H358.684C358.749 353.648 359.487 354.32 360.618 354.32C361.437 354.32 362.027 353.975 362.256 353.253L364.731 353.401C364.256 355.155 362.683 356.188 360.568 356.188ZM358.684 350.747H362.338C362.273 349.469 361.568 348.83 360.552 348.83C359.52 348.83 358.815 349.534 358.684 350.747ZM240.693 375.99V364.354H243.184V375.99H240.693ZM245.059 375.99V367.206H247.272L247.321 368.666C247.796 367.469 248.763 367.01 249.926 367.01C251.811 367.01 252.909 368.304 252.909 370.336V375.99H250.451V371.156C250.451 369.746 250.14 368.961 249.107 368.961C248.091 368.961 247.517 369.746 247.517 371.156V375.99H245.059ZM257.628 375.99C255.809 375.99 254.989 375.187 254.989 373.352V369.042H253.58V367.206H254.989V365.141H257.448V367.206H259.758V369.042H257.448V373.057C257.448 373.909 257.808 374.156 258.529 374.156H259.758V375.99H257.628ZM264.501 376.188C261.813 376.188 260.076 374.369 260.076 371.599C260.076 368.83 261.813 367.01 264.485 367.01C267.091 367.01 268.795 368.813 268.795 371.763V372.255H262.616C262.682 373.648 263.419 374.32 264.55 374.32C265.37 374.32 265.96 373.975 266.189 373.253L268.664 373.401C268.189 375.155 266.615 376.188 264.501 376.188ZM262.616 370.747H266.271C266.206 369.469 265.501 368.83 264.485 368.83C263.452 368.83 262.748 369.534 262.616 370.747ZM269.802 375.99V367.206H272.129L272.195 368.961C272.539 367.732 273.211 367.206 274.276 367.206H275.079V369.239H274.276C272.9 369.239 272.26 369.746 272.26 371.057V375.99H269.802ZM279.578 376.188C276.89 376.188 275.12 374.385 275.12 371.599C275.12 368.83 276.89 367.01 279.578 367.01C282.266 367.01 284.036 368.83 284.036 371.599C284.036 374.385 282.266 376.188 279.578 376.188ZM279.578 374.302C280.807 374.302 281.512 373.304 281.512 371.599C281.512 369.895 280.807 368.895 279.578 368.895C278.349 368.895 277.644 369.895 277.644 371.599C277.644 373.304 278.349 374.302 279.578 374.302ZM285.054 378.45V367.206H287.414L287.447 368.518C287.955 367.535 288.906 367.01 290.053 367.01C292.511 367.01 293.757 369.026 293.757 371.599C293.757 374.172 292.495 376.188 290.037 376.188C288.939 376.188 287.988 375.647 287.513 374.762V378.45H285.054ZM289.365 374.302C290.512 374.302 291.233 373.271 291.233 371.599C291.233 369.928 290.512 368.895 289.365 368.895C288.217 368.895 287.513 369.829 287.513 371.599C287.513 373.369 288.201 374.302 289.365 374.302ZM298.719 376.188C296.031 376.188 294.294 374.369 294.294 371.599C294.294 368.83 296.031 367.01 298.702 367.01C301.308 367.01 303.013 368.813 303.013 371.763V372.255H296.834C296.9 373.648 297.637 374.32 298.768 374.32C299.587 374.32 300.177 373.975 300.407 373.253L302.882 373.401C302.406 375.155 300.833 376.188 298.719 376.188ZM296.834 370.747H300.489C300.423 369.469 299.719 368.83 298.702 368.83C297.67 368.83 296.965 369.534 296.834 370.747ZM304.02 375.99V367.206H306.347L306.413 368.961C306.757 367.732 307.429 367.206 308.494 367.206H309.297V369.239H308.494C307.117 369.239 306.478 369.746 306.478 371.057V375.99H304.02ZM312.515 376.188C310.68 376.188 309.434 375.302 309.434 373.794C309.434 372.254 310.401 371.468 312.319 371.075L315.154 370.518C315.154 369.37 314.629 368.797 313.662 368.797C312.728 368.797 312.22 369.239 312.056 370.059L309.582 369.943C309.909 368.009 311.368 367.01 313.662 367.01C316.285 367.01 317.612 368.288 317.612 370.68V373.68C317.612 374.171 317.776 374.302 318.104 374.302H318.35V375.99C318.202 376.04 317.809 376.089 317.481 376.089C316.563 376.089 315.76 375.762 315.547 374.648C315.105 375.582 314.023 376.188 312.515 376.188ZM313.105 374.5C314.334 374.5 315.154 373.746 315.154 372.484V372.057L313.154 372.484C312.351 372.648 311.958 372.991 311.958 373.565C311.958 374.155 312.351 374.5 313.105 374.5ZM324.048 376.188C322.819 376.188 321.884 375.647 321.393 374.697L321.344 375.99H319V364.354H321.458V368.453C321.917 367.633 322.851 367.01 324.048 367.01C326.277 367.01 327.702 368.813 327.702 371.599C327.702 374.385 326.277 376.188 324.048 376.188ZM323.359 374.302C324.457 374.302 325.179 373.304 325.179 371.599C325.179 369.895 324.474 368.895 323.376 368.895C322.163 368.895 321.458 369.895 321.458 371.599C321.458 373.287 322.163 374.302 323.359 374.302ZM328.666 366.125V364.159H331.206V366.125H328.666ZM328.715 375.99V367.206H331.173V375.99H328.715ZM335.026 375.99C333.584 375.99 332.732 375.319 332.732 373.697V364.354H335.19V373.435C335.19 373.959 335.436 374.156 335.895 374.156H336.485V375.99H335.026ZM337.18 366.125V364.159H339.72V366.125H337.18ZM337.229 375.99V367.206H339.688V375.99H337.229ZM344.297 376.188C342.068 376.188 340.691 374.418 340.691 371.599C340.691 368.797 342.101 367.01 344.297 367.01C345.542 367.01 346.476 367.551 346.935 368.453V364.354H349.393V375.99H347.05L347.001 374.697C346.509 375.647 345.509 376.188 344.297 376.188ZM345.1 374.302C346.28 374.302 346.935 373.369 346.935 371.599C346.935 369.813 346.28 368.895 345.1 368.895C343.952 368.895 343.215 369.928 343.215 371.599C343.215 373.238 343.969 374.302 345.1 374.302ZM353.487 376.188C351.651 376.188 350.406 375.302 350.406 373.794C350.406 372.254 351.373 371.468 353.29 371.075L356.125 370.518C356.125 369.37 355.601 368.797 354.634 368.797C353.7 368.797 353.192 369.239 353.028 370.059L350.553 369.943C350.881 368.009 352.34 367.01 354.634 367.01C357.256 367.01 358.584 368.288 358.584 370.68V373.68C358.584 374.171 358.748 374.302 359.075 374.302H359.321V375.99C359.174 376.04 358.78 376.089 358.453 376.089C357.535 376.089 356.732 375.762 356.519 374.648C356.076 375.582 354.995 376.188 353.487 376.188ZM354.077 374.5C355.306 374.5 356.125 373.746 356.125 372.484V372.057L354.126 372.484C353.323 372.648 352.93 372.991 352.93 373.565C352.93 374.155 353.323 374.5 354.077 374.5ZM363.07 376.188C360.841 376.188 359.464 374.418 359.464 371.599C359.464 368.797 360.874 367.01 363.07 367.01C364.315 367.01 365.25 367.551 365.708 368.453V364.354H368.167V375.99H365.823L365.774 374.697C365.282 375.647 364.283 376.188 363.07 376.188ZM363.873 374.302C365.053 374.302 365.708 373.369 365.708 371.599C365.708 369.813 365.053 368.895 363.873 368.895C362.726 368.895 361.988 369.928 361.988 371.599C361.988 373.238 362.742 374.302 363.873 374.302ZM373.604 376.188C370.916 376.188 369.179 374.369 369.179 371.599C369.179 368.83 370.916 367.01 373.588 367.01C376.194 367.01 377.898 368.813 377.898 371.763V372.255H371.719C371.785 373.648 372.522 374.32 373.653 374.32C374.473 374.32 375.063 373.975 375.292 373.253L377.767 373.401C377.292 375.155 375.718 376.188 373.604 376.188ZM371.719 370.747H375.374C375.309 369.469 374.604 368.83 373.588 368.83C372.555 368.83 371.851 369.534 371.719 370.747Z" fill="#CACACA"/>
<path d="M309.445 593.197C466.157 593.197 593.197 466.157 593.197 309.445C593.197 152.733 466.157 25.6934 309.445 25.6934C152.733 25.6934 25.6934 152.733 25.6934 309.445C25.6934 466.157 152.733 593.197 309.445 593.197Z" stroke="#A9A9A9" stroke-opacity="0.24" stroke-width="51.3867"/>
</svg>
