<svg width="619" height="619" viewBox="0 0 619 619" fill="none" xmlns="http://www.w3.org/2000/svg">
<g clip-path="url(#clip0_172_2)">
<path fill-rule="evenodd" clip-rule="evenodd" d="M330.436 248.895C332.627 249.174 334.155 251.345 333.849 253.743L333.053 259.987L336.028 260.366L336.272 260.399C346.547 261.853 353.681 272.093 352.24 283.397L352.068 284.754L352.032 285.021C350.477 296.187 341.071 304.172 330.841 303.012L330.597 302.984L327.622 302.604L327.553 303.147C326.483 311.542 319.4 317.556 311.733 316.579L287.688 313.515L302.701 301.826L299.217 297.297L308.096 290.385C314.242 285.6 315.762 277.222 311.492 271.671L310.042 269.786C305.772 264.236 297.328 263.615 291.182 268.4L282.303 275.312L278.437 270.288L265.173 280.614L269.641 245.56C269.947 243.162 271.97 241.444 274.161 241.723L330.436 248.895ZM328.764 293.647L331.739 294.026C337.626 294.776 343.065 290.158 343.887 283.712L344.06 282.355C344.881 275.908 340.774 270.074 334.887 269.324L331.912 268.945L328.764 293.647Z" fill="#A9A9A9" fill-opacity="0.24"/>
<path d="M295.049 273.426C298.121 271.034 302.343 271.344 304.479 274.119L305.928 276.004C308.063 278.779 307.303 282.968 304.23 285.361L295.351 292.273L286.169 280.338L295.049 273.426Z" fill="#A9A9A9" fill-opacity="0.24"/>
<path d="M309.445 593.197C466.157 593.197 593.197 466.157 593.197 309.445C593.197 152.733 466.157 25.6934 309.445 25.6934C152.733 25.6934 25.6934 152.733 25.6934 309.445C25.6934 466.157 152.733 593.197 309.445 593.197Z" stroke="#A9A9A9" stroke-opacity="0.24" stroke-width="51.3867"/>
<path d="M249.567 365V353.64H251.999V365H249.567ZM254.345 365V356.424H256.505L256.601 358.936L256.297 358.856C256.382 358.216 256.553 357.704 256.809 357.32C257.076 356.936 257.406 356.659 257.801 356.488C258.196 356.317 258.628 356.232 259.097 356.232C259.716 356.232 260.238 356.365 260.665 356.632C261.102 356.899 261.433 357.277 261.657 357.768C261.892 358.248 262.009 358.819 262.009 359.48V365H259.609V360.28C259.609 359.821 259.572 359.432 259.497 359.112C259.422 358.792 259.289 358.552 259.097 358.392C258.905 358.221 258.638 358.136 258.297 358.136C257.796 358.136 257.412 358.323 257.145 358.696C256.878 359.059 256.745 359.587 256.745 360.28V365H254.345ZM267.116 365C266.23 365 265.58 364.797 265.164 364.392C264.748 363.976 264.54 363.32 264.54 362.424V354.408H266.94V362.136C266.94 362.552 267.025 362.835 267.196 362.984C267.377 363.133 267.644 363.208 267.996 363.208H269.196V365H267.116ZM263.164 358.216V356.424H269.196V358.216H263.164ZM274.326 365.192C273.451 365.192 272.689 365.011 272.038 364.648C271.398 364.275 270.897 363.752 270.534 363.08C270.182 362.408 270.006 361.619 270.006 360.712C270.006 359.805 270.182 359.021 270.534 358.36C270.897 357.688 271.398 357.165 272.038 356.792C272.678 356.419 273.435 356.232 274.31 356.232C275.163 356.232 275.905 356.419 276.534 356.792C277.163 357.165 277.649 357.699 277.99 358.392C278.342 359.085 278.518 359.912 278.518 360.872V361.352H272.486C272.518 362.035 272.699 362.541 273.03 362.872C273.371 363.203 273.819 363.368 274.374 363.368C274.779 363.368 275.115 363.283 275.382 363.112C275.659 362.941 275.857 362.68 275.974 362.328L278.39 362.472C278.166 363.325 277.691 363.992 276.966 364.472C276.241 364.952 275.361 365.192 274.326 365.192ZM272.486 359.88H276.054C276.022 359.251 275.846 358.781 275.526 358.472C275.217 358.163 274.811 358.008 274.31 358.008C273.809 358.008 273.393 358.173 273.062 358.504C272.742 358.824 272.55 359.283 272.486 359.88ZM280.001 365V356.424H282.273L282.353 358.92L282.177 358.872C282.316 358.008 282.561 357.384 282.913 357C283.265 356.616 283.751 356.424 284.369 356.424H285.153V358.408H284.369C283.921 358.408 283.553 358.467 283.265 358.584C282.977 358.701 282.759 358.888 282.609 359.144C282.471 359.4 282.401 359.747 282.401 360.184V365H280.001ZM290.046 365.192C289.171 365.192 288.408 365.011 287.758 364.648C287.107 364.275 286.6 363.752 286.238 363.08C285.875 362.408 285.694 361.619 285.694 360.712C285.694 359.805 285.875 359.021 286.238 358.36C286.6 357.688 287.107 357.165 287.758 356.792C288.408 356.419 289.171 356.232 290.046 356.232C290.92 356.232 291.683 356.419 292.334 356.792C292.984 357.165 293.491 357.688 293.854 358.36C294.216 359.021 294.398 359.805 294.398 360.712C294.398 361.619 294.216 362.408 293.854 363.08C293.491 363.752 292.984 364.275 292.334 364.648C291.683 365.011 290.92 365.192 290.046 365.192ZM290.046 363.352C290.643 363.352 291.107 363.123 291.438 362.664C291.768 362.195 291.934 361.544 291.934 360.712C291.934 359.88 291.768 359.235 291.438 358.776C291.107 358.307 290.643 358.072 290.046 358.072C289.448 358.072 288.984 358.307 288.654 358.776C288.323 359.235 288.158 359.88 288.158 360.712C288.158 361.544 288.323 362.195 288.654 362.664C288.984 363.123 289.448 363.352 290.046 363.352ZM295.892 367.4V356.424H298.196L298.244 358.232L298.052 358.152C298.265 357.533 298.612 357.059 299.092 356.728C299.572 356.397 300.132 356.232 300.772 356.232C301.572 356.232 302.239 356.429 302.772 356.824C303.305 357.219 303.705 357.757 303.972 358.44C304.249 359.112 304.388 359.869 304.388 360.712C304.388 361.544 304.249 362.301 303.972 362.984C303.705 363.667 303.3 364.205 302.756 364.6C302.223 364.995 301.556 365.192 300.756 365.192C300.34 365.192 299.951 365.117 299.588 364.968C299.225 364.808 298.911 364.589 298.644 364.312C298.388 364.035 298.201 363.704 298.084 363.32L298.292 363.192V367.4H295.892ZM300.1 363.352C300.665 363.352 301.108 363.117 301.428 362.648C301.759 362.179 301.924 361.533 301.924 360.712C301.924 359.891 301.759 359.245 301.428 358.776C301.108 358.307 300.665 358.072 300.1 358.072C299.727 358.072 299.401 358.173 299.124 358.376C298.857 358.568 298.649 358.861 298.5 359.256C298.361 359.651 298.292 360.136 298.292 360.712C298.292 361.288 298.361 361.773 298.5 362.168C298.649 362.563 298.857 362.861 299.124 363.064C299.401 363.256 299.727 363.352 300.1 363.352ZM309.732 365.192C308.858 365.192 308.095 365.011 307.444 364.648C306.804 364.275 306.303 363.752 305.94 363.08C305.588 362.408 305.412 361.619 305.412 360.712C305.412 359.805 305.588 359.021 305.94 358.36C306.303 357.688 306.804 357.165 307.444 356.792C308.084 356.419 308.842 356.232 309.716 356.232C310.57 356.232 311.311 356.419 311.94 356.792C312.57 357.165 313.055 357.699 313.396 358.392C313.748 359.085 313.924 359.912 313.924 360.872V361.352H307.892C307.924 362.035 308.106 362.541 308.436 362.872C308.778 363.203 309.226 363.368 309.78 363.368C310.186 363.368 310.522 363.283 310.788 363.112C311.066 362.941 311.263 362.68 311.38 362.328L313.796 362.472C313.572 363.325 313.098 363.992 312.372 364.472C311.647 364.952 310.767 365.192 309.732 365.192ZM307.892 359.88H311.46C311.428 359.251 311.252 358.781 310.932 358.472C310.623 358.163 310.218 358.008 309.716 358.008C309.215 358.008 308.799 358.173 308.468 358.504C308.148 358.824 307.956 359.283 307.892 359.88ZM315.408 365V356.424H317.68L317.76 358.92L317.584 358.872C317.722 358.008 317.968 357.384 318.32 357C318.672 356.616 319.157 356.424 319.776 356.424H320.56V358.408H319.776C319.328 358.408 318.96 358.467 318.672 358.584C318.384 358.701 318.165 358.888 318.016 359.144C317.877 359.4 317.808 359.747 317.808 360.184V365H315.408ZM324.202 365.192C323.316 365.192 322.591 364.989 322.026 364.584C321.471 364.168 321.194 363.592 321.194 362.856C321.194 362.099 321.428 361.517 321.898 361.112C322.378 360.696 323.082 360.392 324.01 360.2L326.778 359.656C326.778 359.101 326.65 358.685 326.394 358.408C326.148 358.12 325.791 357.976 325.322 357.976C324.863 357.976 324.506 358.083 324.25 358.296C323.994 358.499 323.828 358.803 323.754 359.208L321.338 359.096C321.498 358.157 321.919 357.448 322.602 356.968C323.295 356.477 324.202 356.232 325.322 356.232C326.602 356.232 327.562 356.536 328.202 357.144C328.852 357.752 329.178 358.643 329.178 359.816V362.744C329.178 362.989 329.215 363.155 329.29 363.24C329.375 363.315 329.498 363.352 329.658 363.352H329.898V365C329.823 365.021 329.7 365.043 329.53 365.064C329.37 365.085 329.21 365.096 329.05 365.096C328.708 365.096 328.388 365.037 328.09 364.92C327.802 364.803 327.567 364.605 327.386 364.328C327.204 364.04 327.114 363.635 327.114 363.112L327.322 363.272C327.215 363.656 327.023 363.992 326.746 364.28C326.479 364.568 326.127 364.792 325.69 364.952C325.263 365.112 324.767 365.192 324.202 365.192ZM324.778 363.544C325.172 363.544 325.519 363.469 325.818 363.32C326.116 363.16 326.351 362.931 326.522 362.632C326.692 362.333 326.778 361.981 326.778 361.576V361.16L324.826 361.576C324.442 361.651 324.148 361.779 323.946 361.96C323.754 362.131 323.658 362.355 323.658 362.632C323.658 362.92 323.754 363.144 323.946 363.304C324.138 363.464 324.415 363.544 324.778 363.544ZM335.961 365.192C335.363 365.192 334.841 365.064 334.393 364.808C333.955 364.552 333.614 364.195 333.369 363.736L333.321 365H331.033V353.64H333.433V357.64C333.657 357.245 333.987 356.915 334.425 356.648C334.862 356.371 335.374 356.232 335.961 356.232C336.686 356.232 337.315 356.419 337.849 356.792C338.382 357.155 338.793 357.672 339.081 358.344C339.379 359.016 339.529 359.805 339.529 360.712C339.529 361.619 339.379 362.408 339.081 363.08C338.793 363.752 338.382 364.275 337.849 364.648C337.315 365.011 336.686 365.192 335.961 365.192ZM335.289 363.352C335.822 363.352 336.249 363.123 336.569 362.664C336.899 362.195 337.065 361.544 337.065 360.712C337.065 359.88 336.905 359.235 336.585 358.776C336.265 358.307 335.838 358.072 335.305 358.072C334.91 358.072 334.569 358.179 334.281 358.392C334.003 358.595 333.79 358.893 333.641 359.288C333.502 359.683 333.433 360.157 333.433 360.712C333.433 361.256 333.502 361.725 333.641 362.12C333.79 362.515 334.003 362.819 334.281 363.032C334.569 363.245 334.905 363.352 335.289 363.352ZM341.017 365V356.424H343.417V365H341.017ZM340.969 355.368V353.448H343.449V355.368H340.969ZM347.679 365C346.975 365 346.425 364.824 346.031 364.472C345.636 364.12 345.439 363.549 345.439 362.76V353.64H347.839V362.504C347.839 362.76 347.897 362.941 348.015 363.048C348.132 363.155 348.303 363.208 348.527 363.208H349.103V365H347.679ZM350.329 365V356.424H352.729V365H350.329ZM350.281 355.368V353.448H352.761V355.368H350.281ZM357.913 365C357.027 365 356.377 364.797 355.961 364.392C355.545 363.976 355.337 363.32 355.337 362.424V354.408H357.737V362.136C357.737 362.552 357.822 362.835 357.993 362.984C358.174 363.133 358.441 363.208 358.793 363.208H359.993V365H357.913ZM353.961 358.216V356.424H359.993V358.216H353.961ZM362.002 367.4V365.608H363.138C363.416 365.608 363.618 365.565 363.746 365.48C363.885 365.405 363.992 365.267 364.066 365.064L364.242 364.568H363.586L360.578 356.424H363.026L364.994 362.328L366.834 356.424H369.282L365.986 365.816C365.794 366.381 365.517 366.787 365.154 367.032C364.792 367.277 364.285 367.4 363.634 367.4H362.002ZM270.981 386V374.64H275.397C276.805 374.64 277.882 374.891 278.629 375.392C279.376 375.883 279.749 376.661 279.749 377.728C279.749 378.197 279.653 378.608 279.461 378.96C279.269 379.301 278.986 379.573 278.613 379.776C278.25 379.979 277.808 380.101 277.285 380.144V380.112C278.234 380.176 278.96 380.453 279.461 380.944C279.973 381.424 280.229 382.064 280.229 382.864C280.229 383.92 279.856 384.709 279.109 385.232C278.373 385.744 277.317 386 275.941 386H270.981ZM273.413 384.016H275.829C276.416 384.016 276.885 383.899 277.237 383.664C277.6 383.419 277.781 383.056 277.781 382.576C277.781 382.096 277.6 381.733 277.237 381.488C276.885 381.232 276.416 381.104 275.829 381.104H273.413V384.016ZM273.413 379.344H275.333C275.93 379.344 276.405 379.227 276.757 378.992C277.12 378.757 277.301 378.421 277.301 377.984C277.301 377.515 277.125 377.173 276.773 376.96C276.432 376.736 275.952 376.624 275.333 376.624H273.413V379.344ZM284.506 386.192C283.621 386.192 282.896 385.989 282.33 385.584C281.776 385.168 281.498 384.592 281.498 383.856C281.498 383.099 281.733 382.517 282.202 382.112C282.682 381.696 283.386 381.392 284.314 381.2L287.082 380.656C287.082 380.101 286.954 379.685 286.698 379.408C286.453 379.12 286.096 378.976 285.626 378.976C285.168 378.976 284.81 379.083 284.554 379.296C284.298 379.499 284.133 379.803 284.058 380.208L281.642 380.096C281.802 379.157 282.224 378.448 282.906 377.968C283.6 377.477 284.506 377.232 285.626 377.232C286.906 377.232 287.866 377.536 288.506 378.144C289.157 378.752 289.482 379.643 289.482 380.816V383.744C289.482 383.989 289.52 384.155 289.594 384.24C289.68 384.315 289.802 384.352 289.962 384.352H290.202V386C290.128 386.021 290.005 386.043 289.834 386.064C289.674 386.085 289.514 386.096 289.354 386.096C289.013 386.096 288.693 386.037 288.394 385.92C288.106 385.803 287.872 385.605 287.69 385.328C287.509 385.04 287.418 384.635 287.418 384.112L287.626 384.272C287.52 384.656 287.328 384.992 287.05 385.28C286.784 385.568 286.432 385.792 285.994 385.952C285.568 386.112 285.072 386.192 284.506 386.192ZM285.082 384.544C285.477 384.544 285.824 384.469 286.122 384.32C286.421 384.16 286.656 383.931 286.826 383.632C286.997 383.333 287.082 382.981 287.082 382.576V382.16L285.13 382.576C284.746 382.651 284.453 382.779 284.25 382.96C284.058 383.131 283.962 383.355 283.962 383.632C283.962 383.92 284.058 384.144 284.25 384.304C284.442 384.464 284.72 384.544 285.082 384.544ZM295.194 386.192C294.319 386.192 293.557 386.011 292.906 385.648C292.255 385.275 291.749 384.752 291.386 384.08C291.023 383.408 290.842 382.619 290.842 381.712C290.842 380.805 291.023 380.021 291.386 379.36C291.749 378.688 292.255 378.165 292.906 377.792C293.557 377.419 294.319 377.232 295.194 377.232C295.951 377.232 296.629 377.365 297.226 377.632C297.834 377.899 298.325 378.283 298.698 378.784C299.071 379.285 299.301 379.888 299.386 380.592L296.906 380.704C296.831 380.171 296.639 379.771 296.33 379.504C296.031 379.227 295.653 379.088 295.194 379.088C294.597 379.088 294.133 379.317 293.802 379.776C293.471 380.235 293.306 380.88 293.306 381.712C293.306 382.544 293.471 383.195 293.802 383.664C294.133 384.123 294.597 384.352 295.194 384.352C295.653 384.352 296.037 384.213 296.346 383.936C296.655 383.648 296.842 383.216 296.906 382.64L299.386 382.736C299.311 383.44 299.087 384.053 298.714 384.576C298.351 385.088 297.866 385.488 297.258 385.776C296.661 386.053 295.973 386.192 295.194 386.192ZM300.712 386V374.64H303.112V380.944L306.296 377.424H309.176L305.848 380.96L309.272 386H306.648L304.296 382.32L303.112 383.584V386H300.712ZM315.203 386.192C314.605 386.192 314.083 386.064 313.635 385.808C313.197 385.552 312.856 385.195 312.611 384.736L312.563 386H310.275V374.64H312.675V378.64C312.899 378.245 313.229 377.915 313.667 377.648C314.104 377.371 314.616 377.232 315.203 377.232C315.928 377.232 316.557 377.419 317.091 377.792C317.624 378.155 318.035 378.672 318.323 379.344C318.621 380.016 318.771 380.805 318.771 381.712C318.771 382.619 318.621 383.408 318.323 384.08C318.035 384.752 317.624 385.275 317.091 385.648C316.557 386.011 315.928 386.192 315.203 386.192ZM314.531 384.352C315.064 384.352 315.491 384.123 315.811 383.664C316.141 383.195 316.307 382.544 316.307 381.712C316.307 380.88 316.147 380.235 315.827 379.776C315.507 379.307 315.08 379.072 314.547 379.072C314.152 379.072 313.811 379.179 313.523 379.392C313.245 379.595 313.032 379.893 312.883 380.288C312.744 380.683 312.675 381.157 312.675 381.712C312.675 382.256 312.744 382.725 312.883 383.12C313.032 383.515 313.245 383.819 313.523 384.032C313.811 384.245 314.147 384.352 314.531 384.352ZM324.147 386.192C323.272 386.192 322.51 386.011 321.859 385.648C321.208 385.275 320.702 384.752 320.339 384.08C319.976 383.408 319.795 382.619 319.795 381.712C319.795 380.805 319.976 380.021 320.339 379.36C320.702 378.688 321.208 378.165 321.859 377.792C322.51 377.419 323.272 377.232 324.147 377.232C325.022 377.232 325.784 377.419 326.435 377.792C327.086 378.165 327.592 378.688 327.955 379.36C328.318 380.021 328.499 380.805 328.499 381.712C328.499 382.619 328.318 383.408 327.955 384.08C327.592 384.752 327.086 385.275 326.435 385.648C325.784 386.011 325.022 386.192 324.147 386.192ZM324.147 384.352C324.744 384.352 325.208 384.123 325.539 383.664C325.87 383.195 326.035 382.544 326.035 381.712C326.035 380.88 325.87 380.235 325.539 379.776C325.208 379.307 324.744 379.072 324.147 379.072C323.55 379.072 323.086 379.307 322.755 379.776C322.424 380.235 322.259 380.88 322.259 381.712C322.259 382.544 322.424 383.195 322.755 383.664C323.086 384.123 323.55 384.352 324.147 384.352ZM329.993 386V377.424H332.154L332.25 379.936L331.946 379.856C332.031 379.216 332.202 378.704 332.458 378.32C332.724 377.936 333.055 377.659 333.45 377.488C333.844 377.317 334.276 377.232 334.746 377.232C335.364 377.232 335.887 377.365 336.314 377.632C336.751 377.899 337.082 378.277 337.306 378.768C337.54 379.248 337.658 379.819 337.658 380.48V386H335.258V381.28C335.258 380.821 335.22 380.432 335.146 380.112C335.071 379.792 334.938 379.552 334.746 379.392C334.554 379.221 334.287 379.136 333.946 379.136C333.444 379.136 333.06 379.323 332.794 379.696C332.527 380.059 332.394 380.587 332.394 381.28V386H329.993ZM343.428 386.192C342.553 386.192 341.79 386.011 341.14 385.648C340.5 385.275 339.998 384.752 339.636 384.08C339.284 383.408 339.108 382.619 339.108 381.712C339.108 380.805 339.284 380.021 339.636 379.36C339.998 378.688 340.5 378.165 341.14 377.792C341.78 377.419 342.537 377.232 343.412 377.232C344.265 377.232 345.006 377.419 345.636 377.792C346.265 378.165 346.75 378.699 347.092 379.392C347.444 380.085 347.62 380.912 347.62 381.872V382.352H341.588C341.62 383.035 341.801 383.541 342.132 383.872C342.473 384.203 342.921 384.368 343.476 384.368C343.881 384.368 344.217 384.283 344.484 384.112C344.761 383.941 344.958 383.68 345.076 383.328L347.492 383.472C347.268 384.325 346.793 384.992 346.068 385.472C345.342 385.952 344.462 386.192 343.428 386.192ZM341.588 380.88H345.156C345.124 380.251 344.948 379.781 344.628 379.472C344.318 379.163 343.913 379.008 343.412 379.008C342.91 379.008 342.494 379.173 342.164 379.504C341.844 379.824 341.652 380.283 341.588 380.88Z" fill="#CACACA"/>
</g>
<defs>
<clipPath id="clip0_172_2">
<rect width="619" height="619" fill="white"/>
</clipPath>
</defs>
</svg>
