<svg width="33" height="26" viewBox="0 0 33 26" fill="none" xmlns="http://www.w3.org/2000/svg">
<path fill-rule="evenodd" clip-rule="evenodd" d="M22.4286 0C23.2442 2.6314e-05 23.9053 0.713599 23.9054 1.59386V3.88548H25.0131L25.1037 3.88601C28.936 3.9384 32.0277 7.30801 32.0278 11.457V11.9551L32.0272 12.0532C31.979 16.1571 28.9058 19.4741 25.1037 19.526L25.0131 19.5268H23.9054V19.726C23.9054 22.8072 21.5912 25.3051 18.7366 25.3051H9.78461L14.7391 20.3928L13.251 18.9176L16.1813 16.0124C18.2094 14.0015 18.3754 10.9056 16.5518 9.09749L15.9324 8.48368C14.1088 6.67567 10.9863 6.84014 8.95819 8.851L6.02812 11.7559L4.37717 10.1193L0 14.4592V1.59386C7.83877e-05 0.713596 0.66122 2.06355e-05 1.47676 0H22.4286ZM23.9054 16.2391H25.0131C27.205 16.2391 28.982 14.321 28.982 11.9551V11.457C28.982 9.0911 27.205 7.17322 25.0131 7.17319H23.9054V16.2391Z" fill="black"/>
<path d="M10.6094 10.4879C11.6235 9.48251 13.1847 9.40022 14.0965 10.3042L14.7156 10.9181C15.6274 11.8221 15.5444 13.3701 14.5304 14.3755L11.6 17.2807L7.67907 13.3928L10.6094 10.4879Z" fill="black"/>
</svg>
