<svg width="129" height="111" viewBox="0 0 129 111" fill="none" xmlns="http://www.w3.org/2000/svg">
<path fill-rule="evenodd" clip-rule="evenodd" d="M89.206 0C92.4546 0.000114688 95.1494 3.11018 95.2252 6.94677L95.4218 16.9346H99.8339L100.195 16.937C115.465 17.1653 128.069 31.8516 128.425 49.9347L128.468 52.1054L128.474 52.5331C128.634 70.4199 116.677 84.8767 101.536 85.1032L101.176 85.1067H96.7635L96.7806 85.9747C97.0448 99.404 88.0409 110.291 76.67 110.291H41.0113L60.3251 88.8807L54.271 82.4513L65.6944 69.7893C73.6004 61.0249 73.9959 47.5314 66.5769 39.6509L64.0572 36.9757C56.6381 29.0955 44.2142 29.8124 36.3079 38.5766L24.8857 51.2374L18.169 44.1042L1.10554 63.0196L0.00195597 6.94677C-0.0732412 3.11017 2.49909 8.99387e-05 5.74766 0H89.206ZM96.4815 70.7774H100.894C109.625 70.7772 116.539 62.4172 116.336 52.1054L116.293 49.9347C116.09 39.623 108.847 31.2641 100.116 31.264H95.7038L96.4815 70.7774Z" fill="black" fill-opacity="0.15"/>
<path d="M43.0257 45.711C46.9789 41.329 53.1908 40.9703 56.9003 44.9105L59.4189 47.5857C63.1284 51.5259 62.9306 58.2727 58.9777 62.6549L47.5544 75.3169L31.6023 58.3718L43.0257 45.711Z" fill="black" fill-opacity="0.15"/>
</svg>
