<svg width="350" height="230" viewBox="0 0 350 230" fill="none" xmlns="http://www.w3.org/2000/svg">
<g clip-path="url(#clip0_390_4378)">
<mask id="mask0_390_4378" style="mask-type:alpha" maskUnits="userSpaceOnUse" x="0" y="6" width="350" height="249">
<g clip-path="url(#paint0_diamond_390_4378_clip_path)" data-figma-skip-parse="true"><g transform="matrix(0.239547 0.265605 0.374536 -0.337791 110.198 -11.3024)"><rect x="0" y="0" width="1002.48" height="516.704" fill="url(#paint0_diamond_390_4378)" opacity="1" shape-rendering="crispEdges"/><rect x="0" y="0" width="1002.48" height="516.704" transform="scale(1 -1)" fill="url(#paint0_diamond_390_4378)" opacity="1" shape-rendering="crispEdges"/><rect x="0" y="0" width="1002.48" height="516.704" transform="scale(-1 1)" fill="url(#paint0_diamond_390_4378)" opacity="1" shape-rendering="crispEdges"/><rect x="0" y="0" width="1002.48" height="516.704" transform="scale(-1)" fill="url(#paint0_diamond_390_4378)" opacity="1" shape-rendering="crispEdges"/></g></g><rect width="349.744" height="248.023" transform="matrix(-1 0 0 1 349.744 6.27905)" data-figma-gradient-fill="{&#34;type&#34;:&#34;GRADIENT_DIAMOND&#34;,&#34;stops&#34;:[{&#34;color&#34;:{&#34;r&#34;:0.0,&#34;g&#34;:0.0,&#34;b&#34;:0.0,&#34;a&#34;:1.0},&#34;position&#34;:0.58999699354171753},{&#34;color&#34;:{&#34;r&#34;:0.0,&#34;g&#34;:0.0,&#34;b&#34;:0.0,&#34;a&#34;:0.0},&#34;position&#34;:0.89999997615814209}],&#34;stopsVar&#34;:[{&#34;color&#34;:{&#34;r&#34;:0.0,&#34;g&#34;:0.0,&#34;b&#34;:0.0,&#34;a&#34;:1.0},&#34;position&#34;:0.58999699354171753},{&#34;color&#34;:{&#34;r&#34;:0.0,&#34;g&#34;:0.0,&#34;b&#34;:0.0,&#34;a&#34;:0.0},&#34;position&#34;:0.89999997615814209}],&#34;transform&#34;:{&#34;m00&#34;:479.09304809570312,&#34;m01&#34;:749.07232666015625,&#34;m02&#34;:-503.8850097656250,&#34;m10&#34;:531.20928955078125,&#34;m11&#34;:-675.58197021484375,&#34;m12&#34;:60.883987426757812},&#34;opacity&#34;:1.0,&#34;blendMode&#34;:&#34;NORMAL&#34;,&#34;visible&#34;:true}"/>
</mask>
<g mask="url(#mask0_390_4378)">
<path d="M0 18.0649C0 13.8961 3.37949 10.5166 7.5483 10.5166H384.02C388.188 10.5166 391.568 13.8961 391.568 18.0649V31.2744H0V18.0649Z" fill="#737373"/>
<circle cx="17.9273" cy="20.8956" r="2.83061" fill="#D4D4D4"/>
<circle cx="27.3626" cy="20.8956" r="2.83061" fill="#D4D4D4"/>
<circle cx="36.7979" cy="20.8956" r="2.83061" fill="#D4D4D4"/>
<rect y="31.2744" width="392" height="434" fill="white"/>
<path d="M94 110.333V117" stroke="#525252" stroke-width="2.5" stroke-linecap="round" stroke-linejoin="round"/>
<path d="M101 120.001L105.834 115.167" stroke="#525252" stroke-width="2.5" stroke-linecap="round" stroke-linejoin="round"/>
<path d="M104 127H110.667" stroke="#525252" stroke-width="2.5" stroke-linecap="round" stroke-linejoin="round"/>
<path d="M101 134L105.833 138.833" stroke="#525252" stroke-width="2.5" stroke-linecap="round" stroke-linejoin="round"/>
<path d="M94 137V143.667" stroke="#525252" stroke-width="2.5" stroke-linecap="round" stroke-linejoin="round"/>
<path d="M82.1674 138.834L87.0007 134" stroke="#525252" stroke-width="2.5" stroke-linecap="round" stroke-linejoin="round"/>
<path d="M77.3334 127H84" stroke="#525252" stroke-width="2.5" stroke-linecap="round" stroke-linejoin="round"/>
<path d="M82.1674 115.167L87.0007 120.001" stroke="#525252" stroke-width="2.5" stroke-linecap="round" stroke-linejoin="round"/>
<path d="M136.007 135.5V118.933H138.527V134.567L137.197 133.19H146.6V135.5H136.007ZM153.737 135.78C152.555 135.78 151.52 135.516 150.634 134.987C149.747 134.458 149.063 133.703 148.58 132.723C148.098 131.743 147.857 130.6 147.857 129.293C147.857 127.971 148.098 126.828 148.58 125.863C149.063 124.899 149.747 124.152 150.634 123.623C151.52 123.079 152.555 122.807 153.737 122.807C154.919 122.807 155.954 123.079 156.84 123.623C157.727 124.152 158.412 124.899 158.894 125.863C159.376 126.828 159.617 127.971 159.617 129.293C159.617 130.6 159.376 131.743 158.894 132.723C158.412 133.703 157.727 134.458 156.84 134.987C155.954 135.516 154.919 135.78 153.737 135.78ZM153.737 133.633C154.795 133.633 155.612 133.252 156.187 132.49C156.763 131.712 157.05 130.647 157.05 129.293C157.05 127.94 156.763 126.882 156.187 126.12C155.612 125.342 154.795 124.953 153.737 124.953C152.695 124.953 151.878 125.342 151.287 126.12C150.712 126.882 150.424 127.94 150.424 129.293C150.424 130.647 150.712 131.712 151.287 132.49C151.878 133.252 152.695 133.633 153.737 133.633ZM165.961 135.78C164.67 135.78 163.635 135.484 162.857 134.893C162.095 134.302 161.714 133.47 161.714 132.397C161.714 131.323 162.033 130.491 162.671 129.9C163.324 129.293 164.327 128.858 165.681 128.593L169.951 127.777C169.951 126.812 169.725 126.097 169.274 125.63C168.823 125.148 168.154 124.907 167.267 124.907C166.474 124.907 165.852 125.086 165.401 125.443C164.95 125.786 164.638 126.299 164.467 126.983L161.924 126.82C162.157 125.576 162.733 124.596 163.651 123.88C164.584 123.164 165.79 122.807 167.267 122.807C168.947 122.807 170.223 123.258 171.094 124.16C171.981 125.047 172.424 126.299 172.424 127.917V132.747C172.424 133.042 172.471 133.252 172.564 133.377C172.673 133.486 172.844 133.54 173.077 133.54H173.521V135.5C173.443 135.516 173.318 135.531 173.147 135.547C172.976 135.562 172.797 135.57 172.611 135.57C172.082 135.57 171.623 135.484 171.234 135.313C170.861 135.142 170.581 134.862 170.394 134.473C170.207 134.069 170.114 133.532 170.114 132.863L170.371 132.98C170.246 133.524 169.974 134.007 169.554 134.427C169.15 134.847 168.628 135.181 167.991 135.43C167.368 135.663 166.692 135.78 165.961 135.78ZM166.357 133.82C167.104 133.82 167.742 133.68 168.271 133.4C168.8 133.104 169.212 132.7 169.507 132.187C169.803 131.673 169.951 131.09 169.951 130.437V129.643L166.311 130.343C165.564 130.483 165.035 130.709 164.724 131.02C164.428 131.316 164.281 131.697 164.281 132.163C164.281 132.692 164.46 133.104 164.817 133.4C165.191 133.68 165.704 133.82 166.357 133.82ZM180.045 135.78C178.987 135.78 178.061 135.516 177.268 134.987C176.49 134.458 175.891 133.711 175.471 132.747C175.067 131.767 174.865 130.616 174.865 129.293C174.865 127.971 175.075 126.828 175.495 125.863C175.915 124.883 176.513 124.129 177.291 123.6C178.069 123.071 178.987 122.807 180.045 122.807C180.9 122.807 181.662 122.986 182.331 123.343C183 123.701 183.506 124.199 183.848 124.837V118.933H186.321V135.5H184.011L183.941 133.633C183.599 134.302 183.078 134.831 182.378 135.22C181.693 135.593 180.916 135.78 180.045 135.78ZM180.698 133.633C181.367 133.633 181.935 133.462 182.401 133.12C182.868 132.778 183.226 132.28 183.475 131.627C183.723 130.973 183.848 130.196 183.848 129.293C183.848 128.36 183.723 127.574 183.475 126.937C183.226 126.283 182.868 125.793 182.401 125.467C181.935 125.124 181.367 124.953 180.698 124.953C179.702 124.953 178.909 125.342 178.318 126.12C177.727 126.882 177.431 127.94 177.431 129.293C177.431 130.631 177.727 131.689 178.318 132.467C178.909 133.244 179.702 133.633 180.698 133.633ZM189.537 135.5V123.087H192.01V135.5H189.537ZM189.49 121.29V118.817H192.057V121.29H189.49ZM195.829 135.5V123.087H198.092L198.185 126.4L197.882 126.237C198.022 125.428 198.287 124.774 198.675 124.277C199.064 123.779 199.539 123.413 200.099 123.18C200.659 122.931 201.265 122.807 201.919 122.807C202.852 122.807 203.622 123.017 204.229 123.437C204.851 123.841 205.318 124.401 205.629 125.117C205.955 125.817 206.119 126.618 206.119 127.52V135.5H203.645V128.267C203.645 127.536 203.568 126.921 203.412 126.423C203.257 125.926 203 125.544 202.642 125.28C202.284 125.016 201.818 124.883 201.242 124.883C200.371 124.883 199.663 125.171 199.119 125.747C198.574 126.322 198.302 127.162 198.302 128.267V135.5H195.829ZM214.451 139.28C213.471 139.28 212.608 139.132 211.861 138.837C211.114 138.541 210.5 138.121 210.018 137.577C209.536 137.048 209.209 136.426 209.038 135.71L211.604 135.547C211.776 136.06 212.071 136.464 212.491 136.76C212.927 137.071 213.58 137.227 214.451 137.227C215.478 137.227 216.263 137.009 216.808 136.573C217.368 136.138 217.648 135.477 217.648 134.59V132.793C217.352 133.431 216.878 133.937 216.224 134.31C215.571 134.683 214.84 134.87 214.031 134.87C212.989 134.87 212.063 134.613 211.254 134.1C210.446 133.587 209.816 132.879 209.364 131.977C208.913 131.074 208.688 130.032 208.688 128.85C208.688 127.652 208.906 126.602 209.341 125.7C209.792 124.798 210.414 124.09 211.208 123.577C212.017 123.063 212.927 122.807 213.938 122.807C214.824 122.807 215.602 123.009 216.271 123.413C216.956 123.818 217.446 124.362 217.741 125.047V123.087H220.121V134.52C220.121 135.547 219.888 136.41 219.421 137.11C218.97 137.826 218.317 138.362 217.461 138.72C216.621 139.093 215.618 139.28 214.451 139.28ZM214.428 132.77C215.392 132.77 216.162 132.42 216.738 131.72C217.329 131.02 217.632 130.056 217.648 128.827C217.663 128.018 217.539 127.326 217.274 126.75C217.01 126.159 216.629 125.708 216.131 125.397C215.649 125.07 215.081 124.907 214.428 124.907C213.417 124.907 212.631 125.264 212.071 125.98C211.527 126.68 211.254 127.629 211.254 128.827C211.254 130.04 211.534 131.004 212.094 131.72C212.67 132.42 213.448 132.77 214.428 132.77ZM222.978 135.5V132.56H225.988V135.5H222.978ZM228.062 135.5V132.56H231.072V135.5H228.062ZM233.146 135.5V132.56H236.156V135.5H233.146Z" fill="#171717"/>
</g>
</g>
<defs>
<clipPath id="paint0_diamond_390_4378_clip_path"><rect width="349.744" height="248.023" transform="matrix(-1 0 0 1 349.744 6.27905)"/></clipPath><linearGradient id="paint0_diamond_390_4378" x1="0" y1="0" x2="500" y2="500" gradientUnits="userSpaceOnUse">
<stop offset="0.589997"/>
<stop offset="0.9" stop-opacity="0"/>
</linearGradient>
<clipPath id="clip0_390_4378">
<rect width="351" height="254.302" fill="white"/>
</clipPath>
</defs>
</svg>
