<svg width="154" height="173" viewBox="0 0 154 173" fill="none" xmlns="http://www.w3.org/2000/svg">
<path d="M132.578 94.6251H93.0418C88.4226 94.6251 83.9926 96.4601 80.7263 99.7263C77.4601 102.993 75.6251 107.423 75.6251 112.042V151.578" stroke="#F1F1EC" stroke-width="10.9375" stroke-linecap="round" stroke-linejoin="round"/>
<path d="M5.95825 -6.91431V7.54153C5.95825 14.4703 8.7107 21.1153 13.6101 26.0147C18.5095 30.9141 25.1545 33.6665 32.0833 33.6665C36.7024 33.6665 41.1324 35.5015 44.3987 38.7678C47.665 42.034 49.4999 46.464 49.4999 51.0832C49.4999 60.6624 57.3374 68.4999 66.9166 68.4999C71.5358 68.4999 75.9658 66.6649 79.232 63.3986C82.4983 60.1324 84.3333 55.7024 84.3333 51.0832C84.3333 41.504 92.1708 33.6665 101.75 33.6665H129.355" stroke="#F1F1EC" stroke-width="10.9375" stroke-linecap="round" stroke-linejoin="round"/>
<path d="M40.7918 155.148V120.75C40.7918 116.13 38.9568 111.7 35.6906 108.434C32.4243 105.168 27.9943 103.333 23.3751 103.333C18.756 103.333 14.326 101.498 11.0597 98.2317C7.79345 94.9654 5.95848 90.5354 5.95848 85.9163V77.2079C5.95848 72.5887 4.12352 68.1587 0.857262 64.8925C-2.409 61.6262 -6.839 59.7913 -11.4582 59.7913H-37.1478" stroke="#F1F1EC" stroke-width="10.9375" stroke-linecap="round" stroke-linejoin="round"/>
<path d="M49.4998 155.583C97.5947 155.583 136.583 116.595 136.583 68.4998C136.583 20.405 97.5947 -18.5835 49.4998 -18.5835C1.40504 -18.5835 -37.5835 20.405 -37.5835 68.4998C-37.5835 116.595 1.40504 155.583 49.4998 155.583Z" stroke="#F1F1EC" stroke-width="10.9375" stroke-linecap="round" stroke-linejoin="round"/>
</svg>
